# xmcd
# Track frame offsets:
# 150
# 10755
# 18052
# 30920
# 42602
# 55237
# 69012
# 79072
# 92660
# 97797
# 109527
# 125640
# 140095
# 151490
# 168395
# 175860
# 195735
# 204512
# 221045
# 235395
# 252665
# 268630
# 283330
# 302557
# 312707
# 334045
#
# Disc length: 4629 seconds
# Revision: 8
# Processed by: cddbd v1.5.2PL0 Copyright (c) Steve Scherf et al.
# Submitted via: VisiTrax 2.11.3.279 - For more info visit www.synapsa.com
#
DISCID=6f12131a
DTITLE=Johnny Cash - Johnny Cash At Madison Square Garden
DYEAR=1969
DGENRE=Country
TTITLE0=Johnny Cash - Big River
TTITLE1=Johnny Cash - I Still Miss Someone
TTITLE2=Johnny Cash - Five Feet High And Rising
TTITLE3=Johnny Cash - Pickin' Time
TTITLE4=Johnny Cash - Remember The Alamo
TTITLE5=Johnny Cash - Last Night I Had The Strangest Dream
TTITLE6=Johnny Cash - Wreck Of The Old 97
TTITLE7=Johnny Cash - The Long Black Veil
TTITLE8=Johnny Cash - The Wall
TTITLE9=Johnny Cash - Send A Picture Of Mother
TTITLE10=Johnny Cash - Folsom Prison Blues
TTITLE11=Johnny Cash With Carl Perkins - Blue Suede Shoes
TTITLE12=Johnny Cash With Statler Brothers - Flowers On The Wall
TTITLE13=Johnny Cash With The Carter Family - Wildwood Flower
TTITLE14=Johnny Cash With Carter Family - Worried Man Blues
TTITLE15=Johnny Cash - A Boy Named Sue
TTITLE16=Johnny Cash - Cocaine Blues
TTITLE17=Johnny Cash - Jesus Was A Carpenter
TTITLE18=Johnny Cash - The Ballad Of Ira Hayes
TTITLE19=Johnny Cash - As Long As The Grass Shall Grow
TTITLE20=Johnny Cash - Sing A Travellin' Song
TTITLE21=Johnny Cash - He Turned The Water Into Wine
TTITLE22=Johnny Cash - Were You There (When They Crucified My Lord)
TTITLE23=Johnny Cash - Daddy Sang Bass
TTITLE24=Johnny Cash: Tommy Cash: The Carter Family: The Statler Brothers: Car
TTITLE24=l Perkins - Finale Medley: Do What You Do, Do Well/I Walk The Line/Rin
TTITLE24=g Of Fire/Folsom Prison Blues/The Rebel/Folsom Prison Blues
TTITLE25=Johnny Cash - Suppertime
EXTD=Columbia Records/ LEGACY
EXTT0=
EXTT1=
EXTT2=
EXTT3=
EXTT4=
EXTT5=
EXTT6=
EXTT7=
EXTT8=
EXTT9=
EXTT10=
EXTT11=Carl Perkins
EXTT12=The Statler Brothers
EXTT13=The Carter Family
EXTT14=The Carter Family
EXTT15=
EXTT16=
EXTT17=
EXTT18=
EXTT19=
EXTT20=
EXTT21=
EXTT22=
EXTT23=
EXTT24=
EXTT25=
PLAYORDER=
